<?xml version="1.0" standalone="no"?><!DOCTYPE svg PUBLIC "-//W3C//DTD SVG 1.1//EN" "http://www.w3.org/Graphics/SVG/1.1/DTD/svg11.dtd"><svg t="1720768592072" class="icon" viewBox="0 0 1024 1024" version="1.1" xmlns="http://www.w3.org/2000/svg" p-id="1496" xmlns:xlink="http://www.w3.org/1999/xlink" width="200" height="200"><path d="M82.365217 851.077565v-247.229217H0v310.761739c0 40.603826 32.901565 73.46087 73.46087 73.46087h283.336347v-82.320696H136.993391a54.761739 54.761739 0 0 1-54.672695-54.672696z m0-714.084174A54.761739 54.761739 0 0 1 136.94887 82.365217h219.803826V0H73.46087A73.46087 73.46087 0 0 0 0 73.46087v255.910956h82.365217v-192.333913z m823.385044 714.128696a54.761739 54.761739 0 0 1-54.672696 54.628174H631.318261v82.365217h283.380869a73.46087 73.46087 0 0 0 73.46087-73.460869v-310.806261h-82.365217v247.229217zM914.654609 0h-283.38087v82.365217h219.803826a54.761739 54.761739 0 0 1 54.672696 54.628174v192.333913h82.365217V73.46087A73.46087 73.46087 0 0 0 914.654609 0zM962.159304 439.162435H25.911652a26.089739 26.089739 0 0 0-25.911652 26.045217v30.230261c0 14.60313 11.575652 26.045217 25.911652 26.045217h936.292174a26.089739 26.089739 0 0 0 25.911652-26.045217v-30.230261a25.822609 25.822609 0 0 0-25.956174-26.045217z" fill="#FF7712" p-id="1497"></path></svg>